<svg xmlns="http://www.w3.org/2000/svg" viewBox="0 0 99.2 21.5" style="enable-background:new 0 0 99.2 21.5" xml:space="preserve"><path class="st0" d="M96.6 1.4c1.5 0 2.7 1.2 2.7 2.7 0 1.5-1.2 2.7-2.7 2.7-1.5 0-2.7-1.2-2.7-2.7 0-1.5 1.2-2.7 2.7-2.7zm-.1.5c-1.1 0-2 1-2 2.2 0 1.2.9 2.1 2 2.1s2-.9 2-2.1c.1-1.2-.8-2.2-2-2.2zm-.4 3.7h-.6v-3c.2 0 .5-.1 1-.1s.8.1 1 .2c.2.1.3.3.3.6 0 .4-.3.6-.6.7.3 0 .4.3.5.7.1.5.1.6.2.7h-.7c-.2.1-.2-.2-.3-.6 0-.3-.2-.5-.6-.5H96v1.3zm0-1.7h.3c.4 0 .7-.1.7-.4-.1-.3-.2-.5-.7-.5h-.3v.9zM14.5 7.2h4.9l1 7h.1l3.2-7h3.4l1 7 3.3-7h3.4L28 21.1h-3.3l-1.2-6.8-3.2 6.8h-3.5zM39.2 15.1c-.2 2 1 3.2 2.8 3.2 1.2 0 2.5-.8 3.2-2l3 1.5c-1.9 2.5-4.2 3.8-7.4 3.8-4.2 0-6.9-2.7-6.4-7.3.4-4.3 3.4-7.3 7.8-7.3 4 0 6.8 2.4 6.3 7.8v.4h-9.3zm4.6-2.7c.2-1.5-.4-2.7-1.7-2.7-1.6 0-2.3 1.2-2.4 2.7h4.1zM51.8 7.2h4.7l-.3 2c1.3-1.2 3-2.4 4.7-2.4 1.3 0 3.7.8 3.2 4.2l-1.6 10.1h-4.7l1.4-8.8c.2-1 .1-2-1.1-2-.7 0-1.4.6-2.2 1.3l-1.5 9.6h-4.7l2.1-14zM74.7 12.1c.1-1.1-.1-2.1-1.4-2.1-1 0-2.1.9-2.6 4.1-.5 3.1.1 4.1 1.8 4.1 1.5 0 2.3-1.1 2.9-2.4l3.3.6c-1.6 3.1-3.9 4.9-7.2 4.9-3.9 0-6.4-2.7-5.6-7.3.7-4.3 3.9-7.3 7.9-7.3 3.2 0 5 1.7 5.3 5l-4.4.4zM85.3 15.1c-.3 2 .8 3.2 2.6 3.2 1.2 0 2.6-.8 3.3-2l2.9 1.5c-2 2.5-4.4 3.8-7.6 3.8-4.2 0-6.7-2.7-5.9-7.3.7-4.3 3.9-7.3 8.3-7.3 4 0 6.6 2.4 5.8 7.8l-.1.4h-9.3zm4.8-2.7c.3-1.5-.2-2.7-1.5-2.7-1.6 0-2.4 1.2-2.6 2.7h4.1z"/><path class="st0" d="M16.4 4.9C17.6 3 18 2.2 19.5 0H1.2L0 4.8h6.1l-3 16.1c3.6-3.6 5.2-5.4 7.9-8.7l1.2-7.3h4.2z"/></svg>